<svg width="21" height="21" viewBox="0 0 21 21" fill="none" xmlns="http://www.w3.org/2000/svg">
<path d="M10.5 0C16.2991 0 21 4.70085 21 10.5C21 16.2991 16.2991 21 10.5 21C4.70085 21 0 16.2991 0 10.5C0 4.70085 4.70085 0 10.5 0ZM14.7042 11.4219C14.3419 10.8706 14.0805 10.4737 13.0851 10.6312C11.2056 10.9294 10.9966 11.2581 10.9074 11.7999L10.8822 11.9637L10.8559 12.138C10.7541 12.8551 10.7572 13.126 11.0869 13.4715C12.4152 14.8659 13.2111 15.8707 13.4526 16.4587C13.5702 16.7454 13.8726 17.6137 13.6647 18.4726C14.9389 17.9645 16.0733 17.1591 16.9733 16.1238C17.0888 15.7311 17.1727 15.2418 17.1727 14.6496V14.5393C17.1727 13.5712 17.1727 13.1292 16.4881 12.7375C16.2684 12.6122 16.0424 12.4983 15.8109 12.3963C15.4255 12.2209 15.1704 12.1065 14.826 11.6025C14.784 11.543 14.7434 11.4828 14.7042 11.4219ZM10.5 1.92465C8.06715 1.92465 5.8695 2.93895 4.3092 4.56645C4.49505 4.6956 4.65675 4.87725 4.76805 5.12715C4.98225 5.607 4.98225 6.10155 4.98225 6.5394C4.98225 6.8838 4.98225 7.2114 5.0925 7.44765C5.2437 7.77105 5.8968 7.90965 6.47325 8.02935C6.6801 8.07345 6.8922 8.11755 7.0854 8.1711C7.6167 8.3181 8.0283 8.79585 8.35695 9.1791C8.49345 9.33765 8.6961 9.5718 8.79795 9.6306C8.85045 9.5928 9.0195 9.40905 9.10245 9.1077C9.16755 8.8767 9.14865 8.673 9.0552 8.5617C8.4672 7.8687 8.49975 6.5352 8.6814 6.04275C8.967 5.2668 9.8595 5.32455 10.5126 5.36655C10.7562 5.3823 10.9851 5.39805 11.1573 5.376C11.8104 5.2941 12.012 4.29975 12.1537 4.1055C12.4603 3.6855 13.399 3.05235 13.9807 2.66175C12.8854 2.1734 11.6992 1.9222 10.5 1.92465Z" fill="#24A500"/>
</svg>
