<svg width="20" height="20" viewBox="0 0 20 20" fill="none" xmlns="http://www.w3.org/2000/svg">
<g clip-path="url(#clip0_258_543)">
<path d="M12.21 18.3622V4.35864L8.07465 1.83006C7.93251 1.73792 7.76501 1.67935 7.60608 1.63721V15.834L11.8247 18.1947C11.9473 18.2629 12.0764 18.3189 12.21 18.3618M2.24037 18.1108C2.45822 18.1108 2.66751 18.044 2.94394 17.8929L6.4593 16.0015V1.78864C6.30858 1.86364 6.14965 1.94756 5.99072 2.03971L2.02287 4.30828C1.52072 4.59256 1.28644 4.99435 1.28644 5.55542V17.1483C1.28644 17.7679 1.64608 18.1111 2.24072 18.1111M13.3572 18.3454C13.4407 18.3204 13.5243 18.2869 13.6082 18.2283L17.9857 15.7426C18.4797 15.4661 18.7143 15.064 18.7143 14.5033V2.89364C18.7143 2.27399 18.3625 1.93935 17.76 1.93935C17.5507 1.93935 17.3332 1.99792 17.065 2.14864L13.3572 4.20721V18.3454Z" fill="#565656"/>
</g>
<defs>
<clipPath id="clip0_258_543">
<rect width="20" height="20" fill="white"/>
</clipPath>
</defs>
</svg>
