<svg width="19" height="21" viewBox="0 0 19 21" fill="none" xmlns="http://www.w3.org/2000/svg">
<path fill-rule="evenodd" clip-rule="evenodd" d="M10.127 20.4389L10.1144 20.4409L10.0394 20.4762L10.0183 20.4803L10.0035 20.4762L9.92858 20.4399C9.91732 20.4372 9.90888 20.4392 9.90325 20.446L9.89902 20.456L9.88108 20.8879L9.88636 20.908L9.89691 20.9212L10.0067 20.9958L10.0225 20.9999L10.0352 20.9958L10.145 20.9212L10.1576 20.905L10.1619 20.8879L10.1439 20.457C10.1411 20.4463 10.1355 20.4402 10.127 20.4389ZM10.4057 20.3249L10.3909 20.3269L10.1967 20.4207L10.1861 20.4308L10.183 20.4419L10.202 20.8758L10.2072 20.8879L10.2157 20.8959L10.4279 20.9888C10.4412 20.9921 10.4514 20.9894 10.4585 20.9807L10.4627 20.9666L10.4268 20.3471C10.4233 20.3343 10.4162 20.3269 10.4057 20.3249ZM9.65097 20.3269C9.64632 20.3242 9.64076 20.3233 9.63545 20.3245C9.63014 20.3256 9.62549 20.3286 9.62247 20.3329L9.61613 20.3471L9.58025 20.9666C9.58095 20.9787 9.58693 20.9867 9.59819 20.9908L9.61402 20.9888L9.82619 20.8949L9.83675 20.8869L9.83991 20.8758L9.85891 20.4419L9.85575 20.4298L9.84519 20.4197L9.65097 20.3269Z" fill="#565656"/>
<path fill-rule="evenodd" clip-rule="evenodd" d="M14.7778 0C15.861 -8.09928e-07 16.9029 0.39796 17.6877 1.11157C18.4726 1.82518 18.9406 2.79984 18.9947 3.83396L19 4.03575V14.1251C19 15.1605 18.5837 16.1563 17.8371 16.9066C17.0905 17.6568 16.0708 18.104 14.9889 18.1558L14.7778 18.1609H4.22222C3.13897 18.1609 2.09715 17.7629 1.31225 17.0493C0.527361 16.3357 0.0594407 15.361 0.0052779 14.3269L0 14.1251V4.03575C-8.47352e-07 3.00033 0.416348 2.00453 1.16293 1.2543C1.90951 0.50407 2.92921 0.0568155 4.01111 0.0050448L4.22222 0H14.7778ZM8.97222 12.1072C8.5523 12.1072 8.14957 12.2667 7.85264 12.5505C7.5557 12.8343 7.38889 13.2193 7.38889 13.6206C7.38889 14.022 7.5557 14.407 7.85264 14.6908C8.14957 14.9746 8.5523 15.134 8.97222 15.134C9.39215 15.134 9.79488 14.9746 10.0918 14.6908C10.3887 14.407 10.5556 14.022 10.5556 13.6206C10.5556 13.2193 10.3887 12.8343 10.0918 12.5505C9.79488 12.2667 9.39215 12.1072 8.97222 12.1072ZM10.0278 7.56702H5.80556C5.39894 7.56722 5.00798 7.71693 4.7137 7.98514C4.41942 8.25334 4.24438 8.61949 4.22484 9.0077C4.2053 9.39591 4.34276 9.77642 4.60874 10.0704C4.87472 10.3644 5.24884 10.5493 5.65356 10.5868L5.80556 10.5938H10.0278C10.4344 10.5936 10.8254 10.4439 11.1196 10.1757C11.4139 9.90751 11.589 9.54137 11.6085 9.15316C11.628 8.76495 11.4906 8.38443 11.2246 8.09046C10.9586 7.79648 10.5845 7.61159 10.1798 7.57409L10.0278 7.56702ZM13.1944 3.02681H6.86111C6.44118 3.02681 6.03846 3.18626 5.74153 3.47007C5.44459 3.75389 5.27778 4.13883 5.27778 4.54021C5.27778 4.94159 5.44459 5.32653 5.74153 5.61035C6.03846 5.89417 6.44118 6.05362 6.86111 6.05362H13.1944C13.6144 6.05362 14.0171 5.89417 14.314 5.61035C14.611 5.32653 14.7778 4.94159 14.7778 4.54021C14.7778 4.13883 14.611 3.75389 14.314 3.47007C14.0171 3.18626 13.6144 3.02681 13.1944 3.02681Z" fill="#565656"/>
</svg>
